# xmcd CD database file
#
# Track frame offsets:
#	150
#	19413
#	38463
#	49655
#
# Disc length: 917 seconds
#
# Revision: 0
# Processed by: cddbd v1.5.1PL2 Copyright (c) Steve Scherf et al.
# Submitted via: CD2WAV32(JP) R3.22
#
DISCID=27039304
DTITLE=のりものスタジオ - 世界はピーポー
DYEAR=2000
DGENRE=Anime
TTITLE0=ASACO/世界はピーポー(超ムゲン大MIX)
TTITLE1=クマニオン人/くるまにあっく
TTITLE2=TAIGA/のりものりものりも！
TTITLE3=ASACO/世界はピーポー(超ムゲン大MIX)オリジナルカラオケ
EXTD=
EXTT0=
EXTT1=
EXTT2=
EXTT3=
PLAYORDER=
